<?xml version="1.0" encoding="utf-8"?>
<!-- Generator: Adobe Illustrator 25.2.0, SVG Export Plug-In . SVG Version: 6.00 Build 0)  -->
<svg version="1.1" id="Réteg_1" xmlns="http://www.w3.org/2000/svg" xmlns:xlink="http://www.w3.org/1999/xlink" x="0px" y="0px"
	 viewBox="0 0 42.4 42.5" style="enable-background:new 0 0 42.4 42.5;" xml:space="preserve">
<style type="text/css">
	.st0{fill:#18BCC7;}
	.st1{fill:#FFFFFF;}
	.st2{opacity:0.25;fill:#18BCC7;enable-background:new    ;}
</style>
<g>
	<circle class="st0" cx="21.3" cy="21.3" r="21.3"/>
	<path class="st1" d="M33.9,18.4h-4.3c-6.3,0-11.3,5.1-11.3,11.3V34c0,1.6,1.3,2.8,2.8,2.8c1.6,0,2.8-1.3,2.8-2.8v-4.3
		c0-0.7,0.1-1.3,0.3-1.9c0.7-2.1,2.7-3.7,5-3.8c0.1,0,0.2,0,0.3,0h4.4c1.6,0,2.8-1.3,2.8-2.8C36.8,19.7,35.5,18.4,33.9,18.4z"/>
	<path class="st2" d="M29.4,24.1c-2.3,0.1-4.3,1.7-5,3.8c-1.1,0.3-2,0.9-2.8,1.7c-1.1,1.1-1.8,2.6-1.9,4.2
		C19.9,28.4,24.2,24.3,29.4,24.1z"/>
	<path class="st1" d="M8.5,24.1h4.3c6.3,0,11.3-5.1,11.3-11.3V8.5c0-1.6-1.3-2.8-2.8-2.8c-1.6,0-2.8,1.3-2.8,2.8v4.3
		c0,0.7-0.1,1.3-0.3,1.9c-0.7,2.1-2.7,3.7-5,3.8c-0.1,0-0.2,0-0.3,0H8.5c-1.6,0-2.8,1.3-2.8,2.8S6.9,24.1,8.5,24.1z"/>
	<path class="st2" d="M13.1,18.4c2.3-0.1,4.3-1.7,5-3.8c1.1-0.3,2-0.9,2.8-1.7c1.1-1.1,1.8-2.6,1.9-4.2C22.6,14,18.3,18.3,13.1,18.4
		z"/>
</g>
</svg>
