<?xml version="1.0" encoding="utf-8"?>
<!-- Generator: Adobe Illustrator 25.2.0, SVG Export Plug-In . SVG Version: 6.00 Build 0)  -->
<svg version="1.1" id="Réteg_1" xmlns="http://www.w3.org/2000/svg" xmlns:xlink="http://www.w3.org/1999/xlink" x="0px" y="0px"
	 viewBox="0 0 130.4 42.5" style="enable-background:new 0 0 130.4 42.5;" xml:space="preserve">
<style type="text/css">
	.st0{fill:#18BCC7;}
	.st1{fill:#FFFFFF;}
	.st2{opacity:0.25;fill:#18BCC7;enable-background:new    ;}
	.st3{fill:#303334;}
</style>
<g>
	<circle class="st0" cx="21.3" cy="21.3" r="21.3"/>
	<path class="st1" d="M33.9,18.4h-4.3c-6.3,0-11.3,5.1-11.3,11.3v4.3c0,1.6,1.3,2.8,2.8,2.8c1.6,0,2.8-1.3,2.8-2.8v-4.3
		c0-0.7,0.1-1.3,0.3-1.9c0.7-2.1,2.7-3.7,5-3.8c0.1,0,0.2,0,0.3,0h4.4c1.6,0,2.8-1.3,2.8-2.8C36.8,19.7,35.5,18.4,33.9,18.4z"/>
	<path class="st2" d="M29.4,24.1c-2.3,0.1-4.3,1.7-5,3.8c-1.1,0.3-2,0.9-2.8,1.7c-1.1,1.1-1.8,2.6-1.9,4.2
		C19.9,28.4,24.2,24.3,29.4,24.1z"/>
	<path class="st1" d="M8.5,24.1h4.3c6.3,0,11.3-5.1,11.3-11.3V8.5c0-1.6-1.3-2.8-2.8-2.8c-1.6,0-2.8,1.3-2.8,2.8v4.3
		c0,0.7-0.1,1.3-0.3,1.9c-0.7,2.1-2.7,3.7-5,3.8c-0.1,0-0.2,0-0.3,0H8.5c-1.6,0-2.8,1.3-2.8,2.8C5.7,22.8,6.9,24.1,8.5,24.1z"/>
	<path class="st2" d="M13.1,18.4c2.3-0.1,4.3-1.7,5-3.8c1.1-0.3,2-0.9,2.8-1.7c1.1-1.1,1.8-2.6,1.9-4.2C22.6,14,18.3,18.3,13.1,18.4
		z"/>
</g>
<g>
	<path class="st3" d="M56.7,31.5V15.8h1.9v3.8h0.2v11.8H56.7z M66,31.5l0-10.1c0-1.2-0.3-2.2-1-2.9c-0.7-0.7-1.5-1.1-2.6-1.1
		c-1.1,0-2,0.4-2.6,1.1c-0.7,0.7-1,1.7-1,2.9l-1.3-0.7c0-1,0.2-1.9,0.7-2.7c0.5-0.8,1.1-1.4,1.9-1.9c0.8-0.5,1.7-0.7,2.8-0.7
		c1,0,1.9,0.2,2.7,0.6c0.8,0.4,1.4,1,1.8,1.9c0.4,0.8,0.7,1.8,0.7,3l0,10.6H66z M75.3,31.5l0-10.3c0-1.2-0.3-2.2-1-2.8
		c-0.7-0.7-1.5-1-2.6-1c-0.6,0-1.2,0.1-1.7,0.4c-0.6,0.3-1,0.7-1.4,1.3c-0.4,0.6-0.5,1.4-0.5,2.3L66.9,21c0-1.1,0.2-2.1,0.7-2.9
		c0.5-0.8,1.1-1.5,1.9-2c0.8-0.5,1.8-0.7,2.8-0.7c1.6,0,2.8,0.5,3.8,1.5c0.9,1,1.4,2.3,1.4,3.9l0,10.7H75.3z"/>
	<path class="st3" d="M87.8,31.9c-1.5,0-2.8-0.3-4-1c-1.1-0.7-2-1.6-2.6-2.8c-0.6-1.2-0.9-2.7-0.9-4.3c0-1.7,0.3-3.2,0.9-4.4
		c0.6-1.2,1.5-2.2,2.6-2.9c1.1-0.7,2.4-1,3.9-1c1.5,0,2.9,0.4,3.9,1.1c1.1,0.7,1.9,1.7,2.5,3c0.6,1.3,0.8,2.9,0.8,4.7h-2.2v-0.8
		c0-2-0.5-3.6-1.3-4.6c-0.8-1-2.1-1.5-3.7-1.5c-1.7,0-3,0.5-3.9,1.6c-0.9,1.1-1.3,2.6-1.3,4.7c0,2,0.4,3.5,1.3,4.6
		c0.9,1.1,2.2,1.6,3.8,1.6c1.1,0,2.1-0.3,2.9-0.8c0.8-0.5,1.5-1.3,2-2.2l2,0.8C94,29,93.1,30,91.9,30.8
		C90.7,31.5,89.4,31.9,87.8,31.9z M81.9,24.2v-1.8h11.9v1.8H81.9z"/>
	<path class="st3" d="M104.2,31.9c-1.5,0-2.7-0.4-3.7-1.1c-1-0.7-1.8-1.7-2.4-3c-0.6-1.2-0.8-2.6-0.8-4.2c0-1.6,0.3-3,0.8-4.2
		c0.5-1.2,1.3-2.2,2.3-3c1-0.7,2.2-1.1,3.7-1.1c1.5,0,2.7,0.4,3.7,1.1c1,0.7,1.8,1.7,2.3,2.9c0.5,1.2,0.8,2.6,0.8,4.2
		c0,1.6-0.3,3-0.8,4.2c-0.5,1.2-1.3,2.2-2.3,3C106.9,31.5,105.6,31.9,104.2,31.9z M104.4,29.9c1.1,0,2-0.3,2.7-0.8
		c0.7-0.5,1.3-1.3,1.6-2.2c0.4-0.9,0.5-2,0.5-3.2c0-1.2-0.2-2.3-0.5-3.2c-0.4-0.9-0.9-1.7-1.6-2.2c-0.7-0.5-1.6-0.8-2.7-0.8
		c-1.1,0-2,0.3-2.8,0.8c-0.7,0.5-1.3,1.3-1.6,2.2c-0.4,0.9-0.5,2-0.5,3.2c0,1.2,0.2,2.3,0.5,3.2c0.4,0.9,0.9,1.7,1.6,2.2
		C102.4,29.6,103.3,29.9,104.4,29.9z M109.3,31.5V19.7h-0.2v-9.1h2.1v20.8H109.3z"/>
	<path class="st3" d="M120,27.6v-5h-5v-3h5v-5h3v5h5v3h-5v5H120z"/>
</g>
</svg>
